<svg width="76" height="13" viewBox="0 0 76 13" fill="none" xmlns="http://www.w3.org/2000/svg">
<path d="M3.156 11.292C2.268 11.292 1.52 10.932 0.911999 10.212C0.303999 9.492 -1.19209e-06 8.444 -1.19209e-06 7.068C-1.19209e-06 6.052 0.163999 5.128 0.491999 4.296C0.819999 3.456 1.332 2.772 2.028 2.244C2.732 1.708 3.524 1.44 4.404 1.44C5.284 1.44 5.924 1.656 6.324 2.088C6.724 2.512 6.924 3 6.924 3.552C6.924 4.104 6.784 4.548 6.504 4.884C6.224 5.212 5.86 5.376 5.412 5.376C5.268 5.376 5.092 5.344 4.884 5.28C5.068 5.088 5.228 4.82 5.364 4.476C5.508 4.124 5.58 3.772 5.58 3.42C5.58 3.068 5.484 2.768 5.292 2.52C5.108 2.264 4.812 2.136 4.404 2.136C3.788 2.136 3.236 2.392 2.748 2.904C2.268 3.408 1.904 4.032 1.656 4.776C1.416 5.512 1.296 6.272 1.296 7.056C1.296 8.16 1.508 8.988 1.932 9.54C2.356 10.084 2.904 10.356 3.576 10.356C4.024 10.356 4.484 10.22 4.956 9.948C5.428 9.676 5.816 9.284 6.12 8.772C6.24 8.772 6.352 8.808 6.456 8.88C6.56 8.952 6.612 9.024 6.612 9.096C6.164 9.944 5.6 10.532 4.92 10.86C4.328 11.148 3.74 11.292 3.156 11.292ZM12.7319 7.176C12.7319 6.392 12.6319 5.832 12.4319 5.496C12.2399 5.152 11.9599 4.98 11.5919 4.98C11.2319 4.98 10.8679 5.16 10.4999 5.52C10.1319 5.872 9.83991 6.312 9.62391 6.84C9.41591 7.36 9.31191 7.904 9.31191 8.472C9.31191 9.032 9.41991 9.52 9.63591 9.936C9.85191 10.344 10.1799 10.548 10.6199 10.548C11.2439 10.548 11.7519 10.18 12.1439 9.444C12.5359 8.708 12.7319 7.952 12.7319 7.176ZM9.25191 6.708C9.55591 5.844 9.96391 5.216 10.4759 4.824C10.9959 4.424 11.5199 4.224 12.0479 4.224C12.5839 4.224 13.0279 4.46 13.3799 4.932C13.7319 5.396 13.9079 6.028 13.9079 6.828C13.9079 7.708 13.7399 8.524 13.4039 9.276C13.0279 10.108 12.4839 10.688 11.7719 11.016C11.3879 11.2 10.9639 11.292 10.4999 11.292C9.85191 11.292 9.28391 11.024 8.79591 10.488C8.30791 9.944 8.06391 9.172 8.06391 8.172C8.06391 7.164 8.27991 6.292 8.71191 5.556C9.14391 4.82 9.73191 4.308 10.4759 4.02C10.6359 4.02 10.7159 4.1 10.7159 4.26C9.92391 4.78 9.43591 5.596 9.25191 6.708ZM19.4422 4.536C19.4422 4.872 19.3782 5.104 19.2502 5.232C19.1222 5.36 18.9342 5.424 18.6862 5.424H17.6782C17.4062 7.152 17.2702 8.796 17.2702 10.356C17.2702 10.828 17.2782 11.168 17.2942 11.376C17.3182 11.592 17.3742 11.956 17.4622 12.468C16.5582 12.108 16.1062 11.284 16.1062 9.996C16.1062 8.548 16.2542 7.048 16.5502 5.496C16.1502 5.56 15.7382 5.68 15.3142 5.856C15.2982 5.728 15.2902 5.612 15.2902 5.508C15.2902 5.124 15.4142 4.868 15.6622 4.74C15.9182 4.604 16.2822 4.536 16.7542 4.536C17.4422 1.72 18.5022 0.311999 19.9342 0.311999C20.4062 0.311999 20.7942 0.443999 21.0982 0.707999C21.4022 0.971999 21.5542 1.288 21.5542 1.656C21.5542 2.024 21.4462 2.336 21.2302 2.592C21.0142 2.84 20.7302 2.964 20.3782 2.964C20.2342 2.964 20.1022 2.936 19.9822 2.88C20.0782 2.792 20.1742 2.648 20.2702 2.448C20.3742 2.24 20.4262 2.028 20.4262 1.812C20.4262 1.588 20.3662 1.4 20.2462 1.248C20.1342 1.096 19.9862 1.02 19.8022 1.02C18.9542 1.02 18.2942 2.204 17.8222 4.572C18.5982 4.572 19.1302 4.456 19.4182 4.224C19.4342 4.336 19.4422 4.44 19.4422 4.536ZM24.3406 4.536C24.3406 4.872 24.2766 5.104 24.1486 5.232C24.0206 5.36 23.8326 5.424 23.5846 5.424H22.5766C22.3046 7.152 22.1686 8.796 22.1686 10.356C22.1686 10.828 22.1766 11.168 22.1926 11.376C22.2166 11.592 22.2726 11.956 22.3606 12.468C21.4566 12.108 21.0046 11.284 21.0046 9.996C21.0046 8.548 21.1526 7.048 21.4486 5.496C21.0486 5.56 20.6366 5.68 20.2126 5.856C20.1966 5.728 20.1886 5.612 20.1886 5.508C20.1886 5.124 20.3126 4.868 20.5606 4.74C20.8166 4.604 21.1806 4.536 21.6526 4.536C22.3406 1.72 23.4006 0.311999 24.8326 0.311999C25.3046 0.311999 25.6926 0.443999 25.9966 0.707999C26.3006 0.971999 26.4526 1.288 26.4526 1.656C26.4526 2.024 26.3446 2.336 26.1286 2.592C25.9126 2.84 25.6286 2.964 25.2766 2.964C25.1326 2.964 25.0006 2.936 24.8806 2.88C24.9766 2.792 25.0726 2.648 25.1686 2.448C25.2726 2.24 25.3246 2.028 25.3246 1.812C25.3246 1.588 25.2646 1.4 25.1446 1.248C25.0326 1.096 24.8846 1.02 24.7006 1.02C23.8526 1.02 23.1926 2.204 22.7206 4.572C23.4966 4.572 24.0286 4.456 24.3166 4.224C24.3326 4.336 24.3406 4.44 24.3406 4.536ZM28.1197 4.812C27.6397 4.812 27.2317 5.088 26.8957 5.64C26.5677 6.192 26.3477 6.84 26.2357 7.584H26.5717C26.9957 7.584 27.3637 7.524 27.6757 7.404C27.9877 7.284 28.2277 7.128 28.3957 6.936C28.7157 6.568 28.8757 6.152 28.8757 5.688C28.8757 5.424 28.8117 5.212 28.6837 5.052C28.5637 4.892 28.3757 4.812 28.1197 4.812ZM29.8117 9.672C29.4437 10.272 29.0397 10.692 28.5997 10.932C28.1597 11.172 27.6477 11.292 27.0637 11.292C26.4877 11.292 25.9837 11.036 25.5517 10.524C25.1197 10.012 24.9037 9.292 24.9037 8.364C24.9037 7.308 25.1877 6.364 25.7557 5.532C26.0357 5.132 26.3997 4.808 26.8477 4.56C27.3037 4.312 27.8037 4.188 28.3477 4.188C29.5477 4.188 30.1477 4.768 30.1477 5.928C30.1477 6.624 29.8757 7.172 29.3317 7.572C28.7957 7.964 28.1717 8.16 27.4597 8.16C26.9877 8.16 26.5637 8.116 26.1877 8.028C26.1797 8.108 26.1757 8.232 26.1757 8.4C26.1757 9.816 26.5957 10.524 27.4357 10.524C28.2277 10.524 28.8717 10.132 29.3677 9.348C29.6637 9.388 29.8117 9.496 29.8117 9.672ZM34.6237 4.812C34.1437 4.812 33.7357 5.088 33.3997 5.64C33.0717 6.192 32.8517 6.84 32.7397 7.584H33.0757C33.4997 7.584 33.8677 7.524 34.1797 7.404C34.4917 7.284 34.7317 7.128 34.8997 6.936C35.2197 6.568 35.3797 6.152 35.3797 5.688C35.3797 5.424 35.3157 5.212 35.1877 5.052C35.0677 4.892 34.8797 4.812 34.6237 4.812ZM36.3157 9.672C35.9477 10.272 35.5437 10.692 35.1037 10.932C34.6637 11.172 34.1517 11.292 33.5677 11.292C32.9917 11.292 32.4877 11.036 32.0557 10.524C31.6237 10.012 31.4077 9.292 31.4077 8.364C31.4077 7.308 31.6917 6.364 32.2597 5.532C32.5397 5.132 32.9037 4.808 33.3517 4.56C33.8077 4.312 34.3077 4.188 34.8517 4.188C36.0517 4.188 36.6517 4.768 36.6517 5.928C36.6517 6.624 36.3797 7.172 35.8357 7.572C35.2997 7.964 34.6757 8.16 33.9637 8.16C33.4917 8.16 33.0677 8.116 32.6917 8.028C32.6837 8.108 32.6797 8.232 32.6797 8.4C32.6797 9.816 33.0997 10.524 33.9397 10.524C34.7317 10.524 35.3757 10.132 35.8717 9.348C36.1677 9.388 36.3157 9.496 36.3157 9.672ZM43.4685 7.404C43.7325 6.5 44.1365 5.74 44.6805 5.124C45.2325 4.5 45.7485 4.188 46.2285 4.188C46.7085 4.188 47.0485 4.336 47.2485 4.632C47.4485 4.92 47.5485 5.316 47.5485 5.82C47.5485 6.316 47.4685 7.016 47.3085 7.92C47.1565 8.824 47.0805 9.484 47.0805 9.9C47.0805 10.308 47.1325 10.608 47.2365 10.8C47.3405 10.984 47.5165 11.144 47.7645 11.28C47.6605 11.288 47.5125 11.292 47.3205 11.292C46.8085 11.292 46.4285 11.188 46.1805 10.98C45.9405 10.764 45.8205 10.4 45.8205 9.888C45.8205 9.592 45.9005 8.996 46.0605 8.1C46.2205 7.196 46.3005 6.532 46.3005 6.108C46.3005 5.58 46.1165 5.316 45.7485 5.316C45.5325 5.316 45.2925 5.432 45.0285 5.664C44.7645 5.888 44.5085 6.196 44.2605 6.588C44.0205 6.972 43.8165 7.464 43.6485 8.064C43.4885 8.656 43.4085 9.244 43.4085 9.828C43.4085 10.404 43.4325 10.832 43.4805 11.112C43.2885 11.128 43.1805 11.136 43.1565 11.136C42.7805 11.136 42.5005 11.056 42.3165 10.896C42.1405 10.736 42.0525 10.488 42.0525 10.152C42.0525 9.808 42.1245 9.152 42.2685 8.184C42.6925 5.208 42.9045 2.948 42.9045 1.404C42.9045 0.707999 42.8565 0.239999 42.7605 -1.19209e-06C43.2245 0.167999 43.5485 0.415999 43.7325 0.743999C43.9245 1.072 44.0205 1.524 44.0205 2.1C44.0205 2.5 43.9405 3.34 43.7805 4.62C43.6285 5.9 43.5245 6.828 43.4685 7.404ZM53.9936 7.176C53.9936 6.392 53.8936 5.832 53.6936 5.496C53.5016 5.152 53.2216 4.98 52.8536 4.98C52.4936 4.98 52.1296 5.16 51.7616 5.52C51.3936 5.872 51.1016 6.312 50.8856 6.84C50.6776 7.36 50.5736 7.904 50.5736 8.472C50.5736 9.032 50.6816 9.52 50.8976 9.936C51.1136 10.344 51.4416 10.548 51.8816 10.548C52.5056 10.548 53.0136 10.18 53.4056 9.444C53.7976 8.708 53.9936 7.952 53.9936 7.176ZM50.5136 6.708C50.8176 5.844 51.2256 5.216 51.7376 4.824C52.2576 4.424 52.7816 4.224 53.3096 4.224C53.8456 4.224 54.2896 4.46 54.6416 4.932C54.9936 5.396 55.1696 6.028 55.1696 6.828C55.1696 7.708 55.0016 8.524 54.6656 9.276C54.2896 10.108 53.7456 10.688 53.0336 11.016C52.6496 11.2 52.2256 11.292 51.7616 11.292C51.1136 11.292 50.5456 11.024 50.0576 10.488C49.5696 9.944 49.3256 9.172 49.3256 8.172C49.3256 7.164 49.5416 6.292 49.9736 5.556C50.4056 4.82 50.9936 4.308 51.7376 4.02C51.8976 4.02 51.9776 4.1 51.9776 4.26C51.1856 4.78 50.6976 5.596 50.5136 6.708ZM61.2319 4.164C61.9199 4.164 62.2639 4.52 62.2639 5.232C62.2639 5.36 62.1879 5.924 62.0359 6.924C61.8839 7.916 61.8079 8.768 61.8079 9.48C61.8079 10.192 61.8839 10.82 62.0359 11.364C61.5479 11.172 61.2079 10.9 61.0159 10.548C60.8319 10.196 60.7399 9.76 60.7399 9.24C60.7399 9.04 60.7839 8.588 60.8719 7.884C60.6319 8.796 60.2599 9.564 59.7559 10.188C59.2519 10.804 58.7839 11.112 58.3519 11.112C57.4399 11.112 56.9839 10.448 56.9839 9.12C56.9839 8.68 57.0479 8.068 57.1759 7.284C57.3119 6.492 57.3799 5.892 57.3799 5.484C57.3799 5.076 57.3239 4.664 57.2119 4.248C57.7239 4.248 58.1079 4.336 58.3639 4.512C58.6199 4.688 58.7479 5.028 58.7479 5.532C58.7479 5.804 58.6639 6.364 58.4959 7.212C58.3279 8.06 58.2439 8.688 58.2439 9.096C58.2439 9.688 58.4279 9.984 58.7959 9.984C59.0999 9.984 59.4159 9.748 59.7439 9.276C60.0799 8.796 60.3599 8.176 60.5839 7.416C60.8079 6.656 60.9199 5.904 60.9199 5.16C60.9199 4.824 60.8959 4.5 60.8479 4.188C61.0239 4.172 61.1519 4.164 61.2319 4.164ZM66.6252 4.776C66.3612 4.776 66.1212 4.86 65.9052 5.028C65.6972 5.196 65.5932 5.428 65.5932 5.724C65.5932 6.012 65.6892 6.284 65.8812 6.54C66.0812 6.796 66.3212 7.024 66.6012 7.224C66.8812 7.424 67.1652 7.628 67.4532 7.836C68.1252 8.332 68.4612 8.864 68.4612 9.432C68.4612 10 68.2332 10.464 67.7772 10.824C67.3212 11.176 66.7372 11.352 66.0252 11.352C65.3212 11.352 64.7732 11.212 64.3812 10.932C63.9972 10.652 63.8052 10.324 63.8052 9.948C63.8052 9.564 63.9012 9.264 64.0932 9.048C64.2852 8.832 64.5172 8.724 64.7892 8.724C64.9332 8.724 65.0692 8.756 65.1972 8.82C65.0212 9.044 64.9332 9.308 64.9332 9.612C64.9332 9.916 65.0252 10.172 65.2092 10.38C65.4012 10.588 65.6612 10.692 65.9892 10.692C66.3252 10.692 66.6092 10.608 66.8412 10.44C67.0732 10.264 67.1892 10.044 67.1892 9.78C67.1892 9.516 67.1212 9.284 66.9852 9.084C66.8492 8.884 66.6772 8.712 66.4692 8.568C66.2692 8.424 66.0492 8.264 65.8092 8.088C65.5692 7.912 65.3452 7.74 65.1372 7.572C64.9372 7.396 64.7692 7.18 64.6332 6.924C64.4972 6.66 64.4292 6.372 64.4292 6.06C64.4292 5.492 64.6452 5.028 65.0772 4.668C65.5092 4.3 66.0532 4.116 66.7092 4.116C67.3652 4.116 67.8452 4.252 68.1492 4.524C68.4532 4.796 68.6052 5.104 68.6052 5.448C68.6052 5.784 68.5212 6.064 68.3532 6.288C68.1852 6.504 67.9692 6.612 67.7052 6.612C67.5772 6.612 67.4292 6.576 67.2612 6.504C67.4692 6.248 67.5732 5.972 67.5732 5.676C67.5732 5.38 67.4812 5.156 67.2972 5.004C67.1212 4.852 66.8972 4.776 66.6252 4.776ZM73.2487 4.812C72.7687 4.812 72.3607 5.088 72.0247 5.64C71.6967 6.192 71.4767 6.84 71.3647 7.584H71.7007C72.1247 7.584 72.4927 7.524 72.8047 7.404C73.1167 7.284 73.3567 7.128 73.5247 6.936C73.8447 6.568 74.0047 6.152 74.0047 5.688C74.0047 5.424 73.9407 5.212 73.8127 5.052C73.6927 4.892 73.5047 4.812 73.2487 4.812ZM74.9407 9.672C74.5727 10.272 74.1687 10.692 73.7287 10.932C73.2887 11.172 72.7767 11.292 72.1927 11.292C71.6167 11.292 71.1127 11.036 70.6807 10.524C70.2487 10.012 70.0327 9.292 70.0327 8.364C70.0327 7.308 70.3167 6.364 70.8847 5.532C71.1647 5.132 71.5287 4.808 71.9767 4.56C72.4327 4.312 72.9327 4.188 73.4767 4.188C74.6767 4.188 75.2767 4.768 75.2767 5.928C75.2767 6.624 75.0047 7.172 74.4607 7.572C73.9247 7.964 73.3007 8.16 72.5887 8.16C72.1167 8.16 71.6927 8.116 71.3167 8.028C71.3087 8.108 71.3047 8.232 71.3047 8.4C71.3047 9.816 71.7247 10.524 72.5647 10.524C73.3567 10.524 74.0007 10.132 74.4967 9.348C74.7927 9.388 74.9407 9.496 74.9407 9.672Z" fill="white"/>
</svg>
