<svg width="70" height="21" viewBox="0 0 70 21" fill="none" xmlns="http://www.w3.org/2000/svg">
<g filter="url(#filter0_d_4_80)">
<path d="M10.708 5.4C10.708 4.224 10.528 3.368 10.168 2.832C9.808 2.296 9.32 2.028 8.704 2.028C8.088 2.028 7.52 2.272 7 2.76C6.48 3.248 6.084 3.86 5.812 4.596C5.54 5.324 5.404 6.072 5.404 6.84C5.404 7.872 5.592 8.72 5.968 9.384C6.352 10.048 6.924 10.38 7.684 10.38C8.3 10.38 8.844 10.128 9.316 9.624C9.788 9.12 10.136 8.496 10.36 7.752C10.592 7.008 10.708 6.224 10.708 5.4ZM10.54 9.792C10.196 10.184 9.764 10.5 9.244 10.74C8.732 10.98 8.168 11.1 7.552 11.1C6.944 11.1 6.404 10.956 5.932 10.668C5.468 10.38 5.1 9.996 4.828 9.516C4.276 8.54 4 7.424 4 6.168C4 4.912 4.308 3.796 4.924 2.82C5.54 1.836 6.34 1.188 7.324 0.876003C7.46 0.908003 7.536 0.972003 7.552 1.068C6.992 1.412 6.532 1.816 6.172 2.28C5.82 2.744 5.576 3.372 5.44 4.164C5.776 3.228 6.3 2.492 7.012 1.956C7.724 1.42 8.468 1.152 9.244 1.152C10.028 1.152 10.692 1.488 11.236 2.16C11.788 2.824 12.064 3.788 12.064 5.052C12.064 6.284 11.844 7.4 11.404 8.4C11.172 8.928 10.884 9.392 10.54 9.792ZM18.1211 3.852C18.8091 3.852 19.1531 4.208 19.1531 4.92C19.1531 5.048 19.0771 5.612 18.9251 6.612C18.7731 7.604 18.6971 8.456 18.6971 9.168C18.6971 9.88 18.7731 10.508 18.9251 11.052C18.4371 10.86 18.0971 10.588 17.9051 10.236C17.7211 9.884 17.6291 9.448 17.6291 8.928C17.6291 8.728 17.6731 8.276 17.7611 7.572C17.5211 8.484 17.1491 9.252 16.6451 9.876C16.1411 10.492 15.6731 10.8 15.2411 10.8C14.3291 10.8 13.8731 10.136 13.8731 8.808C13.8731 8.368 13.9371 7.756 14.0651 6.972C14.2011 6.18 14.2691 5.58 14.2691 5.172C14.2691 4.764 14.2131 4.352 14.1011 3.936C14.6131 3.936 14.9971 4.024 15.2531 4.2C15.5091 4.376 15.6371 4.716 15.6371 5.22C15.6371 5.492 15.5531 6.052 15.3851 6.9C15.2171 7.748 15.1331 8.376 15.1331 8.784C15.1331 9.376 15.3171 9.672 15.6851 9.672C15.9891 9.672 16.3051 9.436 16.6331 8.964C16.9691 8.484 17.2491 7.864 17.4731 7.104C17.6971 6.344 17.8091 5.592 17.8091 4.848C17.8091 4.512 17.7851 4.188 17.7371 3.876C17.9131 3.86 18.0411 3.852 18.1211 3.852ZM22.6024 6.9C22.8904 5.86 23.2344 5.096 23.6344 4.608C24.0424 4.112 24.4184 3.864 24.7624 3.864C25.1144 3.864 25.3784 3.996 25.5544 4.26C25.7304 4.516 25.8184 4.844 25.8184 5.244C25.8184 5.644 25.7144 5.992 25.5064 6.288C25.2984 6.576 24.9944 6.72 24.5944 6.72C24.4664 6.72 24.3664 6.712 24.2944 6.696C24.5664 6.304 24.7024 5.904 24.7024 5.496C24.7024 5.208 24.5864 5.064 24.3544 5.064C24.1704 5.064 23.9744 5.172 23.7664 5.388C23.5584 5.604 23.3584 5.904 23.1664 6.288C22.9744 6.672 22.8144 7.172 22.6864 7.788C22.5584 8.404 22.4944 9.068 22.4944 9.78C22.4944 9.86 22.5144 10.2 22.5544 10.8C22.3464 10.816 22.2264 10.824 22.1944 10.824C21.4904 10.824 21.1384 10.48 21.1384 9.792C21.1384 9.632 21.2224 9.016 21.3904 7.944C21.5584 6.872 21.6424 6.02 21.6424 5.388C21.6424 4.748 21.5744 4.16 21.4384 3.624C21.9104 3.808 22.2384 4.072 22.4224 4.416C22.6144 4.752 22.7104 5.148 22.7104 5.604C22.7104 6.052 22.6744 6.484 22.6024 6.9ZM32.6461 5.064C32.3341 5.432 32.0981 5.888 31.9381 6.432C31.7861 6.968 31.7101 7.544 31.7101 8.16C31.7101 8.776 31.8141 9.272 32.0221 9.648C32.2301 10.024 32.5061 10.212 32.8501 10.212C33.2021 10.212 33.5461 10.108 33.8821 9.9C34.2181 9.692 34.5021 9.404 34.7341 9.036C35.0301 9.076 35.1781 9.184 35.1781 9.36C34.9621 9.76 34.6901 10.088 34.3621 10.344C34.0421 10.6 33.7421 10.768 33.4621 10.848C33.1821 10.936 32.8981 10.98 32.6101 10.98C31.9941 10.98 31.4741 10.74 31.0501 10.26C30.6261 9.772 30.4141 9.068 30.4141 8.148C30.4141 6.98 30.7301 5.976 31.3621 5.136C31.9941 4.296 32.8341 3.876 33.8821 3.876C34.4581 3.876 34.8941 4.028 35.1901 4.332C35.4861 4.628 35.6341 4.976 35.6341 5.376C35.6341 5.768 35.5221 6.104 35.2981 6.384C35.0821 6.664 34.8021 6.804 34.4581 6.804C34.2421 6.804 34.0581 6.768 33.9061 6.696C34.0341 6.552 34.1421 6.352 34.2301 6.096C34.3261 5.832 34.3741 5.576 34.3741 5.328C34.3741 4.776 34.1461 4.5 33.6901 4.5C33.3061 4.5 32.9581 4.688 32.6461 5.064ZM41.6211 6.864C41.6211 6.08 41.5211 5.52 41.3211 5.184C41.1291 4.84 40.8491 4.668 40.4811 4.668C40.1211 4.668 39.7571 4.848 39.3891 5.208C39.0211 5.56 38.7291 6 38.5131 6.528C38.3051 7.048 38.2011 7.592 38.2011 8.16C38.2011 8.72 38.3091 9.208 38.5251 9.624C38.7411 10.032 39.0691 10.236 39.5091 10.236C40.1331 10.236 40.6411 9.868 41.0331 9.132C41.4251 8.396 41.6211 7.64 41.6211 6.864ZM38.1411 6.396C38.4451 5.532 38.8531 4.904 39.3651 4.512C39.8851 4.112 40.4091 3.912 40.9371 3.912C41.4731 3.912 41.9171 4.148 42.2691 4.62C42.6211 5.084 42.7971 5.716 42.7971 6.516C42.7971 7.396 42.6291 8.212 42.2931 8.964C41.9171 9.796 41.3731 10.376 40.6611 10.704C40.2771 10.888 39.8531 10.98 39.3891 10.98C38.7411 10.98 38.1731 10.712 37.6851 10.176C37.1971 9.632 36.9531 8.86 36.9531 7.86C36.9531 6.852 37.1691 5.98 37.6011 5.244C38.0331 4.508 38.6211 3.996 39.3651 3.708C39.5251 3.708 39.6051 3.788 39.6051 3.948C38.8131 4.468 38.3251 5.284 38.1411 6.396ZM48.3314 4.224C48.3314 4.56 48.2674 4.792 48.1394 4.92C48.0114 5.048 47.8234 5.112 47.5754 5.112H46.5674C46.2954 6.84 46.1594 8.484 46.1594 10.044C46.1594 10.516 46.1674 10.856 46.1834 11.064C46.2074 11.28 46.2634 11.644 46.3514 12.156C45.4474 11.796 44.9954 10.972 44.9954 9.684C44.9954 8.236 45.1434 6.736 45.4394 5.184C45.0394 5.248 44.6274 5.368 44.2034 5.544C44.1874 5.416 44.1794 5.3 44.1794 5.196C44.1794 4.812 44.3034 4.556 44.5514 4.428C44.8074 4.292 45.1714 4.224 45.6434 4.224C46.3314 1.408 47.3914 2.6226e-06 48.8234 2.6226e-06C49.2954 2.6226e-06 49.6834 0.132003 49.9874 0.396003C50.2914 0.660002 50.4434 0.976002 50.4434 1.344C50.4434 1.712 50.3354 2.024 50.1194 2.28C49.9034 2.528 49.6194 2.652 49.2674 2.652C49.1234 2.652 48.9914 2.624 48.8714 2.568C48.9674 2.48 49.0634 2.336 49.1594 2.136C49.2634 1.928 49.3154 1.716 49.3154 1.5C49.3154 1.276 49.2554 1.088 49.1354 0.936003C49.0234 0.784003 48.8754 0.708003 48.6914 0.708003C47.8434 0.708003 47.1834 1.892 46.7114 4.26C47.4874 4.26 48.0194 4.144 48.3074 3.912C48.3234 4.024 48.3314 4.128 48.3314 4.224ZM53.2298 4.224C53.2298 4.56 53.1658 4.792 53.0378 4.92C52.9098 5.048 52.7218 5.112 52.4738 5.112H51.4658C51.1938 6.84 51.0578 8.484 51.0578 10.044C51.0578 10.516 51.0658 10.856 51.0818 11.064C51.1058 11.28 51.1618 11.644 51.2498 12.156C50.3458 11.796 49.8938 10.972 49.8938 9.684C49.8938 8.236 50.0418 6.736 50.3378 5.184C49.9378 5.248 49.5258 5.368 49.1018 5.544C49.0858 5.416 49.0778 5.3 49.0778 5.196C49.0778 4.812 49.2018 4.556 49.4498 4.428C49.7058 4.292 50.0698 4.224 50.5418 4.224C51.2298 1.408 52.2898 2.6226e-06 53.7218 2.6226e-06C54.1938 2.6226e-06 54.5818 0.132003 54.8858 0.396003C55.1898 0.660002 55.3418 0.976002 55.3418 1.344C55.3418 1.712 55.2338 2.024 55.0178 2.28C54.8018 2.528 54.5178 2.652 54.1658 2.652C54.0218 2.652 53.8898 2.624 53.7698 2.568C53.8658 2.48 53.9618 2.336 54.0578 2.136C54.1618 1.928 54.2138 1.716 54.2138 1.5C54.2138 1.276 54.1538 1.088 54.0338 0.936003C53.9218 0.784003 53.7738 0.708003 53.5898 0.708003C52.7418 0.708003 52.0818 1.892 51.6098 4.26C52.3858 4.26 52.9178 4.144 53.2058 3.912C53.2218 4.024 53.2298 4.128 53.2298 4.224ZM57.009 4.5C56.529 4.5 56.121 4.776 55.785 5.328C55.457 5.88 55.237 6.528 55.125 7.272H55.461C55.885 7.272 56.253 7.212 56.565 7.092C56.877 6.972 57.117 6.816 57.285 6.624C57.605 6.256 57.765 5.84 57.765 5.376C57.765 5.112 57.701 4.9 57.573 4.74C57.453 4.58 57.265 4.5 57.009 4.5ZM58.701 9.36C58.333 9.96 57.929 10.38 57.489 10.62C57.049 10.86 56.537 10.98 55.953 10.98C55.377 10.98 54.873 10.724 54.441 10.212C54.009 9.7 53.793 8.98 53.793 8.052C53.793 6.996 54.077 6.052 54.645 5.22C54.925 4.82 55.289 4.496 55.737 4.248C56.193 4 56.693 3.876 57.237 3.876C58.437 3.876 59.037 4.456 59.037 5.616C59.037 6.312 58.765 6.86 58.221 7.26C57.685 7.652 57.061 7.848 56.349 7.848C55.877 7.848 55.453 7.804 55.077 7.716C55.069 7.796 55.065 7.92 55.065 8.088C55.065 9.504 55.485 10.212 56.325 10.212C57.117 10.212 57.761 9.82 58.257 9.036C58.553 9.076 58.701 9.184 58.701 9.36ZM63.5129 4.5C63.0329 4.5 62.6249 4.776 62.2889 5.328C61.9609 5.88 61.7409 6.528 61.6289 7.272H61.9649C62.3889 7.272 62.7569 7.212 63.0689 7.092C63.3809 6.972 63.6209 6.816 63.7889 6.624C64.1089 6.256 64.2689 5.84 64.2689 5.376C64.2689 5.112 64.2049 4.9 64.0769 4.74C63.9569 4.58 63.7689 4.5 63.5129 4.5ZM65.2049 9.36C64.8369 9.96 64.4329 10.38 63.9929 10.62C63.5529 10.86 63.0409 10.98 62.4569 10.98C61.8809 10.98 61.3769 10.724 60.9449 10.212C60.5129 9.7 60.2969 8.98 60.2969 8.052C60.2969 6.996 60.5809 6.052 61.1489 5.22C61.4289 4.82 61.7929 4.496 62.2409 4.248C62.6969 4 63.1969 3.876 63.7409 3.876C64.9409 3.876 65.5409 4.456 65.5409 5.616C65.5409 6.312 65.2689 6.86 64.7249 7.26C64.1889 7.652 63.5649 7.848 62.8529 7.848C62.3809 7.848 61.9569 7.804 61.5809 7.716C61.5729 7.796 61.5689 7.92 61.5689 8.088C61.5689 9.504 61.9889 10.212 62.8289 10.212C63.6209 10.212 64.2649 9.82 64.7609 9.036C65.0569 9.076 65.2049 9.184 65.2049 9.36Z" fill="white"/>
</g>
<defs>
<filter id="filter0_d_4_80" x="0" y="0" width="69.5409" height="20.156" filterUnits="userSpaceOnUse" color-interpolation-filters="sRGB">
<feFlood flood-opacity="0" result="BackgroundImageFix"/>
<feColorMatrix in="SourceAlpha" type="matrix" values="0 0 0 0 0 0 0 0 0 0 0 0 0 0 0 0 0 0 127 0" result="hardAlpha"/>
<feOffset dy="4"/>
<feGaussianBlur stdDeviation="2"/>
<feColorMatrix type="matrix" values="0 0 0 0 0 0 0 0 0 0 0 0 0 0 0 0 0 0 0.25 0"/>
<feBlend mode="normal" in2="BackgroundImageFix" result="effect1_dropShadow_4_80"/>
<feBlend mode="normal" in="SourceGraphic" in2="effect1_dropShadow_4_80" result="shape"/>
</filter>
</defs>
</svg>
